<?xml version="1.0" encoding="utf-8"?>
<!-- Generator: Adobe Illustrator 19.0.0, SVG Export Plug-In . SVG Version: 6.00 Build 0)  -->
<svg version="1.1" id="Layer_1" xmlns="http://www.w3.org/2000/svg" xmlns:xlink="http://www.w3.org/1999/xlink" x="0px" y="0px"
	 viewBox="0 0 800 600" style="enable-background:new 0 0 800 600;" xml:space="preserve">
<style type="text/css">
	.st0{opacity:0.1;}
	.st1{fill:#6CD35E;}
	.st2{fill:#B6E5AE;}
	.st3{fill:#D9EFD5;}
	.st4{fill:#4F5674;}
	.st5{fill:#45395B;}
	.st6{fill:#EAE8E0;}
	.st7{fill:#E05D31;}
	.st8{fill:#BCC3B9;}
</style>
<ellipse id="XMLID_48_" class="st0" cx="400.2" cy="497.4" rx="32" ry="8.5"/>
<g id="XMLID_113_">
	<path id="XMLID_45_" class="st1" d="M386,107.5v213.3h28.3V107.5c0-7.8-6.3-14.2-14.2-14.2h0C392.3,93.3,386,99.7,386,107.5z"/>
	<path id="XMLID_46_" class="st2" d="M391.3,108.2v212.7H409V108.2c0-4.9-4-8.8-8.8-8.8h0C395.3,99.3,391.3,103.3,391.3,108.2z"/>
	<path id="XMLID_47_" class="st3" d="M397,187.3v133.5h6.2V187.3c0-1.5-1.2-2.7-2.7-2.7h-0.9C398.2,184.6,397,185.8,397,187.3z"/>
	<g id="XMLID_111_">
		<path id="XMLID_68_" class="st4" d="M389.2,426.1v0.4c0,2.5-2,4.5-4.5,4.5h-0.3c-2.5,0-4.5-2-4.5-4.5v-0.4c0-2.5,2-4.5,4.5-4.5
			h0.3C387.2,421.7,389.2,423.7,389.2,426.1z"/>
		<path id="XMLID_69_" class="st4" d="M389.2,411.4v0.4c0,2.5-2,4.5-4.5,4.5h-0.3c-2.5,0-4.5-2-4.5-4.5v-0.4c0-2.5,2-4.5,4.5-4.5
			h0.3C387.2,406.9,389.2,408.9,389.2,411.4z"/>
		<rect id="XMLID_70_" x="383.6" y="339.1" class="st5" width="33.2" height="47.3"/>
		<path id="XMLID_74_" class="st5" d="M418.6,449.4v11.9c0,1.7-1.4,3.1-3.1,3.1h-30.5c-1.7,0-3.1-1.4-3.1-3.1v-11.9H418.6z"/>
		<path id="XMLID_50_" class="st4" d="M418.6,449.4v14.8c0,1.9-1.5,3.4-3.4,3.4h-30c-1.9,0-3.4-1.5-3.4-3.4v-14.8H418.6z"/>
		<path id="XMLID_75_" class="st5" d="M420.8,463.5L420.8,463.5c0,2.2-1.8,4-4,4h-33.2c-2.2,0-4-1.8-4-4v0c0-2.2,1.8-4,4-4h33.2
			C419,459.5,420.8,461.3,420.8,463.5z"/>
		<path id="XMLID_71_" class="st5" d="M417.3,324.1l-2.9,15.2H386l-2.8-15.2c-0.5-3.3,2-6.2,5.2-6.2H412
			C415.3,317.9,417.8,320.8,417.3,324.1z"/>
		<rect id="XMLID_72_" x="383.6" y="384.1" class="st5" width="18.9" height="55.8"/>
		<path id="XMLID_73_" class="st6" d="M413.8,344.6l-9.7,7.4c-5.8,4.6-13.9,9.4-13.9,21.4v5.6c0,2.8,2.3,5.2,5.2,5.2h1.8
			c2.8,0,5.2,2.3,5.2,5.2v48c0,3.4-2.8,2.7-6.2,2.7h-6h-6.3h-0.6c-2.1,0-3.8,1.7-3.8,3.8v4.5c0,2.1,1.7,3.8,3.8,3.8h34
			c1.9,0,3.5-1.6,3.5-3.5V348.3C420.8,344,416.5,341.7,413.8,344.6z"/>
		<path id="XMLID_76_" class="st7" d="M380.2,378.7v16h-0.3c-3.4,0-6.2-2.8-6.2-6.2v-3.6c0-3.4,2.8-6.2,6.2-6.2H380.2z"/>
		<polygon id="XMLID_77_" class="st8" points="380.2,378.7 380.2,394.7 383.7,396.9 383.7,376.2 		"/>
		<path id="XMLID_100_" class="st5" d="M381.9,338v0.2c0,1.3,1,2.3,2.3,2.3h32.2c1.3,0,2.3-1,2.3-2.3V338c0-1.3-1-2.3-2.3-2.3h-32.2
			C383,335.6,381.9,336.7,381.9,338z"/>
		<path id="XMLID_102_" class="st6" d="M421.3,321.3l0.9-3c0.5-1.5-0.7-3.1-2.3-3.1h-39.4c-1.7,0-2.8,1.6-2.3,3.2l1,2.9
			c0.4,1,1.3,1.7,2.4,1.7H419C420,323,421,322.3,421.3,321.3z"/>
	</g>
</g>
</svg>
